# xmcd
#
# Track frame offsets:
#	150
#	16005
#	34184
#	52284
#	70731
#	96082
#	122894
#	147021
#	167810
#
# Disc length: 2555 seconds
#
# Revision: 1
# Processed by: cddbd v1.5.2PL0 Copyright (c) Steve Scherf et al.
# Submitted via: audiograbber 1.83.01
#
DISCID=7809f909
DTITLE=Willie Colon - Crime pays
DYEAR=1972
DGENRE=Salsa
TTITLE0=Che Che Cole
TTITLE1=El Malo
TTITLE2=Guisando
TTITLE3=Jazzy
TTITLE4=Juana Pena
TTITLE5=Guajiron
TTITLE6=El Titan
TTITLE7=Que Lio
TTITLE8=Eso Se Baila Asi
EXTD=Anthology of W.Colon's first 4 records.\nFania Records.\n
EXTT0=
EXTT1=
EXTT2=
EXTT3=
EXTT4=
EXTT5=
EXTT6=
EXTT7=
EXTT8=
PLAYORDER=
